<?xml version="1.0" encoding="UTF-8" standalone="no"?>
<!-- Created with Inkscape (http://www.inkscape.org/) -->

<svg
   xmlns:dc="http://purl.org/dc/elements/1.1/"
   xmlns:cc="http://creativecommons.org/ns#"
   xmlns:rdf="http://www.w3.org/1999/02/22-rdf-syntax-ns#"
   xmlns:svg="http://www.w3.org/2000/svg"
   xmlns="http://www.w3.org/2000/svg"
   xmlns:sodipodi="http://sodipodi.sourceforge.net/DTD/sodipodi-0.dtd"
   xmlns:inkscape="http://www.inkscape.org/namespaces/inkscape"
   width="210mm"
   height="297mm"
   viewBox="0 0 744.09448819 1052.3622047"
   id="svg2"
   version="1.1"
   inkscape:version="0.91 r13725"
   sodipodi:docname="biking_to_work.svg"
   inkscape:export-filename="/Users/kernst/Google Drive/ANTH2040 final project/biking_to_work-600px.png"
   inkscape:export-xdpi="72.571426"
   inkscape:export-ydpi="72.571426">
  <defs
     id="defs4" />
  <sodipodi:namedview
     id="base"
     pagecolor="#ffffff"
     bordercolor="#666666"
     borderopacity="1.0"
     inkscape:pageopacity="0.0"
     inkscape:pageshadow="2"
     inkscape:zoom="0.90558174"
     inkscape:cx="348.85773"
     inkscape:cy="514.26082"
     inkscape:document-units="px"
     inkscape:current-layer="g4844"
     showgrid="false"
     inkscape:snap-global="false"
     inkscape:snap-page="true"
     inkscape:snap-bbox="true"
     inkscape:bbox-nodes="true"
     inkscape:window-width="1600"
     inkscape:window-height="1155"
     inkscape:window-x="0"
     inkscape:window-y="1"
     inkscape:window-maximized="1" />
  <metadata
     id="metadata7">
    <rdf:RDF>
      <cc:Work
         rdf:about="">
        <dc:format>image/svg+xml</dc:format>
        <dc:type
           rdf:resource="http://purl.org/dc/dcmitype/StillImage" />
        <dc:title></dc:title>
      </cc:Work>
    </rdf:RDF>
  </metadata>
  <g
     inkscape:label="Layer 1"
     inkscape:groupmode="layer"
     id="layer1">
    <rect
       style="color:#000000;clip-rule:nonzero;display:inline;overflow:visible;visibility:visible;opacity:1;isolation:auto;mix-blend-mode:normal;color-interpolation:sRGB;color-interpolation-filters:linearRGB;solid-color:#000000;solid-opacity:1;fill:#000000;fill-opacity:1;fill-rule:nonzero;stroke:none;stroke-width:1;stroke-linecap:butt;stroke-linejoin:miter;stroke-miterlimit:4;stroke-dasharray:none;stroke-dashoffset:0;stroke-opacity:1;color-rendering:auto;image-rendering:auto;shape-rendering:auto;text-rendering:auto;enable-background:accumulate"
       id="rect3739"
       width="744.09448"
       height="349.50507"
       x="3.9968029e-14"
       y="-1.0691448e-13" />
    <flowRoot
       xml:space="preserve"
       id="flowRoot3723"
       style="fill:#002b36;-inkscape-font-specification:FujiyamaExtraBold;font-family:FujiyamaExtraBold;font-weight:normal;font-style:normal;font-stretch:normal;font-variant:normal;font-size:70px;text-anchor:start;text-align:start;writing-mode:lr;line-height:125%;fill-opacity:1;opacity:1;color:#000000;clip-rule:nonzero;display:inline;overflow:visible;visibility:visible;isolation:auto;mix-blend-mode:normal;color-interpolation:sRGB;color-interpolation-filters:linearRGB;solid-color:#000000;solid-opacity:1;fill-rule:nonzero;filter-blend-mode:normal;filter-gaussianBlur-deviation:0;color-rendering:auto;image-rendering:auto;shape-rendering:auto;text-rendering:auto;enable-background:accumulate;stroke:none;stroke-opacity:1;stroke-width:1;stroke-linecap:butt;stroke-linejoin:miter;stroke-miterlimit:4;stroke-dasharray:none;stroke-dashoffset:0"><flowRegion
         id="flowRegion3725"><rect
           id="rect3727"
           width="545.71429"
           height="137.14285"
           x="68.571426"
           y="395.21936" /></flowRegion><flowPara
         id="flowPara3729" /></flowRoot>    <g
       id="g4844"
       transform="translate(1.1307684,0)">
      <text
         transform="scale(0.82696658,1.2092387)"
         sodipodi:linespacing="125%"
         id="text3715"
         y="120.98645"
         x="16.413055"
         style="color:#000000;font-style:normal;font-variant:normal;font-weight:normal;font-stretch:normal;font-size:121.33920288px;line-height:125%;font-family:Share-Tech;-inkscape-font-specification:Share-Tech;text-align:start;writing-mode:lr-tb;text-anchor:start;clip-rule:nonzero;display:inline;overflow:visible;visibility:visible;opacity:1;isolation:auto;mix-blend-mode:normal;color-interpolation:sRGB;color-interpolation-filters:linearRGB;solid-color:#000000;solid-opacity:1;fill:#ffffff;fill-opacity:1;fill-rule:nonzero;stroke:none;stroke-width:1;stroke-linecap:butt;stroke-linejoin:miter;stroke-miterlimit:4;stroke-dasharray:none;stroke-dashoffset:0;stroke-opacity:1;color-rendering:auto;image-rendering:auto;shape-rendering:auto;text-rendering:auto;enable-background:accumulate"
         xml:space="preserve"><tspan
           id="tspan3719"
           style="font-style:normal;font-variant:normal;font-weight:bold;font-stretch:normal;font-family:'Cooper Hewitt';-inkscape-font-specification:'Cooper Hewitt Bold';letter-spacing:-5px;fill:#ffffff"
           y="120.98645"
           x="16.413055"
           sodipodi:role="line">BIKING TO WORK</tspan></text>
      <text
         transform="scale(0.77798986,1.2853638)"
         sodipodi:linespacing="125%"
         id="text3731"
         y="248.18176"
         x="16.98933"
         style="color:#000000;font-style:normal;font-variant:normal;font-weight:normal;font-stretch:normal;font-size:142.79914856px;line-height:125%;font-family:FujiyamaExtraBold;-inkscape-font-specification:FujiyamaExtraBold;text-align:start;writing-mode:lr-tb;text-anchor:start;clip-rule:nonzero;display:inline;overflow:visible;visibility:visible;opacity:1;isolation:auto;mix-blend-mode:normal;color-interpolation:sRGB;color-interpolation-filters:linearRGB;solid-color:#000000;solid-opacity:1;fill:#ffffff;fill-opacity:1;fill-rule:nonzero;stroke:none;stroke-width:1;stroke-linecap:butt;stroke-linejoin:miter;stroke-miterlimit:4;stroke-dasharray:none;stroke-dashoffset:0;stroke-opacity:1;color-rendering:auto;image-rendering:auto;shape-rendering:auto;text-rendering:auto;enable-background:accumulate"
         xml:space="preserve"><tspan
           dx="0 0 0 0 -14.835041 -1.4041413 0 0 0 0 0.89963609 -0.33279234 -0.67203838"
           style="font-style:normal;font-variant:normal;font-weight:bold;font-stretch:normal;font-family:'Cooper Hewitt';-inkscape-font-specification:'Cooper Hewitt Bold';letter-spacing:-6.41956139px;fill:#ffffff"
           id="tspan3735"
           y="248.18176"
           x="16.98933"
           sodipodi:role="line">2 DAYS A WEEK</tspan></text>
    </g>
    <path
       inkscape:connector-curvature="0"
       id="path4075"
       style="fill:#000000"
       d="m 133.55768,407.04768 -25.86294,0.56991 c -8.24634,0.18328 -13.62372,15.9642 1.34092,23.75322 -4.39651,13.92355 -7.49862,26.60805 -11.48155,40.29822 -5.66151,-2.49975 -11.91795,-3.88902 -18.50456,-3.88902 -25.338125,0 -45.876527,20.53997 -45.876527,45.88019 0,25.34022 20.538402,45.88019 45.876527,45.88019 25.33812,0 45.87653,-20.53997 45.87653,-45.88019 0,-14.46929 -6.70172,-27.36361 -17.164,-35.77215 l 1.65942,-5.69918 52.90004,36.10754 c -0.62004,1.86742 -0.9554,3.85847 -0.9554,5.93413 0,10.40262 8.42163,18.84151 18.82322,18.84151 1.81508,0 3.56879,-0.25805 5.22961,-0.73756 l 3.11765,6.52068 -4.60942,0 0,6.31974 18.40408,0 0,-5.74993 -9.20229,0 -4.15687,-8.53255 c 4.66656,-2.46711 8.17517,-6.83044 9.48695,-12.06916 l 4.15687,-0.0167 c 2.55924,22.9155 21.97732,40.73406 45.5746,40.73406 25.33814,0 45.87653,-20.53996 45.87653,-45.88018 0,-25.34021 -20.53839,-45.88019 -45.87653,-45.88019 -6.30824,0 -12.31351,1.26724 -17.78403,3.57052 l -15.25311,-27.91039 5.74941,-13.41024 c 10.80605,0 9.20597,-6.59812 11.4983,-11.4826 l -43.68046,0 c -1.83549,1.26289 -5.15826,2.63662 -2.11198,5.3643 7.08788,3.71404 14.18255,4.89454 21.27043,6.1183 l -4.97816,11.11371 -84.29472,0 3.06737,-11.11371 c -0.42601,-4.54898 -4.1059,-6.76138 -8.04541,-8.80046 -1.35112,-1.63886 0.50181,-1.99983 1.54205,-2.6821 l 18.38735,0 0,-11.49935 z m -17.81753,45.02521 81.98199,0 -17.23098,43.33251 c -0.10054,-10e-4 -0.20076,-0.0167 -0.3017,-0.0167 -2.76362,0 -5.3821,0.60591 -7.74402,1.67632 l -3.63724,-7.44264 7.45886,0 0,-6.52068 -18.77298,0 0,5.93413 7.08998,-0.18439 4.77701,9.97409 c -0.44918,0.31705 -0.88816,0.65169 -1.30739,1.00578 l -55.38545,-37.412 3.07145,-10.34455 z m 95.00554,3.4364 11.14616,20.56823 c -10.42251,7.31183 -17.66788,18.84152 -19.24233,32.11781 l -4.62616,0 c -1.14052,-3.36923 -3.192,-6.32237 -5.88336,-8.53255 l 18.60553,-44.154 z M 79.045,480.61981 c 5.2853,0 10.26921,1.24538 14.70004,3.4532 -1.69662,5.23663 -3.58386,10.67995 -5.7829,16.46128 l -8.24686,8.04646 c -6.916775,4.93441 -6.215104,12.16858 4.7938,9.95735 6.81004,-4.15854 13.32444,-9.24051 17.61661,-21.4567 l 1.5756,-5.39779 c 5.20936,5.84045 8.38081,13.53529 8.38081,21.97628 0,18.24502 -14.79371,33.03977 -33.03715,33.03977 -18.243452,0 -33.020409,-14.79475 -33.020409,-33.03977 0,-18.24502 14.776957,-33.03977 33.020409,-33.03977 z m 169.13885,0 c 18.24345,0 33.03714,14.79474 33.03714,33.03976 0,18.24502 -14.79369,33.03977 -33.03714,33.03977 -16.52198,0 -30.20011,-12.13562 -32.63477,-27.97738 l 31.39416,-0.18439 c 7.52321,-0.43938 6.82153,-4.57756 4.22389,-9.57171 L 236.6518,482.68171 c 3.5916,-1.34015 7.47245,-2.06186 11.53178,-2.06186 z m -20.1308,6.85608 11.23041,20.71892 -23.65067,0 c 1.39832,-8.39809 5.95872,-15.73398 12.42026,-20.71892 z m -49.71452,13.30977 -1.82701,4.60984 -1.75999,-3.60406 c 1.12315,-0.49299 2.33001,-0.83421 3.58695,-1.00578 z m 11.6155,4.03987 c 0.95368,0.99082 1.76109,2.12541 2.38014,3.36938 l -3.80487,0 1.42473,-3.36938 z m -23.03009,6.62114 5.90012,4.02312 c 2.12677,1.53991 4.23807,3.01594 6.13451,3.41967 l 4.12333,8.58277 c -0.93593,0.20422 -1.90283,0.3185 -2.89971,0.3185 -7.48921,0 -13.54315,-6.07121 -13.54315,-13.56145 0,-0.95466 0.0975,-1.88368 0.28495,-2.78267 z m 26.01416,7.40914 c -1.13779,3.13423 -3.40459,5.72064 -6.30248,7.29194 l -3.53666,-7.24171 9.8391,-0.0503 z" />
    <rect
       style="color:#000000;clip-rule:nonzero;display:inline;overflow:visible;visibility:visible;opacity:0.75;isolation:auto;mix-blend-mode:normal;color-interpolation:sRGB;color-interpolation-filters:linearRGB;solid-color:#000000;solid-opacity:1;fill:none;fill-opacity:1;fill-rule:nonzero;stroke:#000000;stroke-width:10;stroke-linecap:butt;stroke-linejoin:miter;stroke-miterlimit:4;stroke-dasharray:none;stroke-dashoffset:0;stroke-opacity:1;color-rendering:auto;image-rendering:auto;shape-rendering:auto;text-rendering:auto;enable-background:accumulate"
       id="rect3873"
       width="118.49841"
       height="117.46216"
       x="24.649189"
       y="380.65326" />
    <text
       xml:space="preserve"
       style="color:#000000;font-style:normal;font-variant:normal;font-weight:normal;font-stretch:normal;font-size:60.80311203px;line-height:125%;font-family:FujiyamaExtraBold;-inkscape-font-specification:FujiyamaExtraBold;text-align:start;writing-mode:lr-tb;text-anchor:start;clip-rule:nonzero;display:inline;overflow:visible;visibility:visible;opacity:1;isolation:auto;mix-blend-mode:normal;color-interpolation:sRGB;color-interpolation-filters:linearRGB;solid-color:#000000;solid-opacity:1;fill:none;fill-opacity:1;fill-rule:nonzero;stroke:#000000;stroke-width:0;stroke-linecap:butt;stroke-linejoin:miter;stroke-miterlimit:4;stroke-dasharray:none;stroke-dashoffset:0;stroke-opacity:1;color-rendering:auto;image-rendering:auto;shape-rendering:auto;text-rendering:auto;enable-background:accumulate"
       x="33.212196"
       y="436.33386"
       id="text4675"
       sodipodi:linespacing="125%"
       transform="scale(1.0044013,0.99561799)"><tspan
         sodipodi:role="line"
         id="tspan4677"
         x="33.212196"
         y="436.33386"
         style="font-style:normal;font-variant:normal;font-weight:bold;font-stretch:normal;font-family:Memorandum;-inkscape-font-specification:'Memorandum Bold';fill:#4d4d4d;stroke-width:0">M</tspan></text>
    <rect
       y="380.65326"
       x="575.41742"
       height="117.46216"
       width="118.49841"
       id="rect4686"
       style="color:#000000;clip-rule:nonzero;display:inline;overflow:visible;visibility:visible;opacity:0.33700005;isolation:auto;mix-blend-mode:normal;color-interpolation:sRGB;color-interpolation-filters:linearRGB;solid-color:#000000;solid-opacity:1;fill:none;fill-opacity:1;fill-rule:nonzero;stroke:#000000;stroke-width:10;stroke-linecap:butt;stroke-linejoin:miter;stroke-miterlimit:4;stroke-dasharray:none;stroke-dashoffset:0;stroke-opacity:1;color-rendering:auto;image-rendering:auto;shape-rendering:auto;text-rendering:auto;enable-background:accumulate" />
    <text
       sodipodi:linespacing="125%"
       id="text4688"
       y="436.33386"
       x="581.56702"
       style="color:#000000;font-style:normal;font-variant:normal;font-weight:normal;font-stretch:normal;font-size:60.80311203px;line-height:125%;font-family:FujiyamaExtraBold;-inkscape-font-specification:FujiyamaExtraBold;text-align:start;writing-mode:lr-tb;text-anchor:start;clip-rule:nonzero;display:inline;overflow:visible;visibility:visible;opacity:0.33700005;isolation:auto;mix-blend-mode:normal;color-interpolation:sRGB;color-interpolation-filters:linearRGB;solid-color:#000000;solid-opacity:1;fill:none;fill-opacity:1;fill-rule:nonzero;stroke:#000000;stroke-width:0;stroke-linecap:butt;stroke-linejoin:miter;stroke-miterlimit:4;stroke-dasharray:none;stroke-dashoffset:0;stroke-opacity:1;color-rendering:auto;image-rendering:auto;shape-rendering:auto;text-rendering:auto;enable-background:accumulate"
       xml:space="preserve"
       transform="scale(1.0044013,0.99561799)"><tspan
         style="font-style:normal;font-variant:normal;font-weight:bold;font-stretch:normal;font-family:Memorandum;-inkscape-font-specification:'Memorandum Bold';fill:#4d4d4d;stroke-width:0"
         y="436.33386"
         x="581.56702"
         id="tspan4690"
         sodipodi:role="line">F</tspan></text>
    <rect
       style="color:#000000;clip-rule:nonzero;display:inline;overflow:visible;visibility:visible;opacity:0.33700005;isolation:auto;mix-blend-mode:normal;color-interpolation:sRGB;color-interpolation-filters:linearRGB;solid-color:#000000;solid-opacity:1;fill:none;fill-opacity:1;fill-rule:nonzero;stroke:#000000;stroke-width:10;stroke-linecap:butt;stroke-linejoin:miter;stroke-miterlimit:4;stroke-dasharray:none;stroke-dashoffset:0;stroke-opacity:1;color-rendering:auto;image-rendering:auto;shape-rendering:auto;text-rendering:auto;enable-background:accumulate"
       id="rect4694"
       width="118.49841"
       height="117.46216"
       x="162.34126"
       y="380.65326" />
    <text
       xml:space="preserve"
       style="color:#000000;font-style:normal;font-variant:normal;font-weight:normal;font-stretch:normal;font-size:60.80311203px;line-height:125%;font-family:FujiyamaExtraBold;-inkscape-font-specification:FujiyamaExtraBold;text-align:start;writing-mode:lr-tb;text-anchor:start;clip-rule:nonzero;display:inline;overflow:visible;visibility:visible;opacity:0.33700005;isolation:auto;mix-blend-mode:normal;color-interpolation:sRGB;color-interpolation-filters:linearRGB;solid-color:#000000;solid-opacity:1;fill:none;fill-opacity:1;fill-rule:nonzero;stroke:#000000;stroke-width:0;stroke-linecap:butt;stroke-linejoin:miter;stroke-miterlimit:4;stroke-dasharray:none;stroke-dashoffset:0;stroke-opacity:1;color-rendering:auto;image-rendering:auto;shape-rendering:auto;text-rendering:auto;enable-background:accumulate"
       x="170.30089"
       y="436.33386"
       id="text4696"
       sodipodi:linespacing="125%"
       transform="scale(1.0044013,0.99561799)"><tspan
         sodipodi:role="line"
         id="tspan4698"
         x="170.30089"
         y="436.33386"
         style="font-style:normal;font-variant:normal;font-weight:bold;font-stretch:normal;font-family:Memorandum;-inkscape-font-specification:'Memorandum Bold';fill:#4d4d4d;stroke-width:0">Tu</tspan></text>
    <rect
       y="380.65326"
       x="300.03329"
       height="117.46216"
       width="118.49841"
       id="rect4702"
       style="color:#000000;clip-rule:nonzero;display:inline;overflow:visible;visibility:visible;opacity:0.33700005;isolation:auto;mix-blend-mode:normal;color-interpolation:sRGB;color-interpolation-filters:linearRGB;solid-color:#000000;solid-opacity:1;fill:none;fill-opacity:1;fill-rule:nonzero;stroke:#000000;stroke-width:10;stroke-linecap:butt;stroke-linejoin:miter;stroke-miterlimit:4;stroke-dasharray:none;stroke-dashoffset:0;stroke-opacity:1;color-rendering:auto;image-rendering:auto;shape-rendering:auto;text-rendering:auto;enable-background:accumulate" />
    <text
       sodipodi:linespacing="125%"
       id="text4704"
       y="436.33386"
       x="307.38959"
       style="color:#000000;font-style:normal;font-variant:normal;font-weight:normal;font-stretch:normal;font-size:60.80311203px;line-height:125%;font-family:FujiyamaExtraBold;-inkscape-font-specification:FujiyamaExtraBold;text-align:start;writing-mode:lr-tb;text-anchor:start;clip-rule:nonzero;display:inline;overflow:visible;visibility:visible;opacity:0.33700005;isolation:auto;mix-blend-mode:normal;color-interpolation:sRGB;color-interpolation-filters:linearRGB;solid-color:#000000;solid-opacity:1;fill:none;fill-opacity:1;fill-rule:nonzero;stroke:#000000;stroke-width:0;stroke-linecap:butt;stroke-linejoin:miter;stroke-miterlimit:4;stroke-dasharray:none;stroke-dashoffset:0;stroke-opacity:1;color-rendering:auto;image-rendering:auto;shape-rendering:auto;text-rendering:auto;enable-background:accumulate"
       xml:space="preserve"
       transform="scale(1.0044013,0.99561799)"><tspan
         style="font-style:normal;font-variant:normal;font-weight:bold;font-stretch:normal;font-family:Memorandum;-inkscape-font-specification:'Memorandum Bold';fill:#4d4d4d;stroke-width:0"
         y="436.33386"
         x="307.38959"
         id="tspan4706"
         sodipodi:role="line">W</tspan></text>
    <rect
       style="color:#000000;clip-rule:nonzero;display:inline;overflow:visible;visibility:visible;opacity:0.75;isolation:auto;mix-blend-mode:normal;color-interpolation:sRGB;color-interpolation-filters:linearRGB;solid-color:#000000;solid-opacity:1;fill:none;fill-opacity:1;fill-rule:nonzero;stroke:#000000;stroke-width:10;stroke-linecap:butt;stroke-linejoin:miter;stroke-miterlimit:4;stroke-dasharray:none;stroke-dashoffset:0;stroke-opacity:1;color-rendering:auto;image-rendering:auto;shape-rendering:auto;text-rendering:auto;enable-background:accumulate"
       id="rect4710"
       width="118.49841"
       height="117.46216"
       x="437.72537"
       y="380.65326" />
    <text
       xml:space="preserve"
       style="color:#000000;font-style:normal;font-variant:normal;font-weight:normal;font-stretch:normal;font-size:60.80311203px;line-height:125%;font-family:FujiyamaExtraBold;-inkscape-font-specification:FujiyamaExtraBold;text-align:start;writing-mode:lr-tb;text-anchor:start;clip-rule:nonzero;display:inline;overflow:visible;visibility:visible;opacity:1;isolation:auto;mix-blend-mode:normal;color-interpolation:sRGB;color-interpolation-filters:linearRGB;solid-color:#000000;solid-opacity:1;fill:none;fill-opacity:1;fill-rule:nonzero;stroke:#000000;stroke-width:0;stroke-linecap:butt;stroke-linejoin:miter;stroke-miterlimit:4;stroke-dasharray:none;stroke-dashoffset:0;stroke-opacity:1;color-rendering:auto;image-rendering:auto;shape-rendering:auto;text-rendering:auto;enable-background:accumulate"
       x="444.47827"
       y="436.33386"
       id="text4712"
       sodipodi:linespacing="125%"
       transform="scale(1.0044013,0.99561799)"><tspan
         sodipodi:role="line"
         id="tspan4714"
         x="444.47827"
         y="436.33386"
         style="font-style:normal;font-variant:normal;font-weight:bold;font-stretch:normal;font-family:Memorandum;-inkscape-font-specification:'Memorandum Bold';fill:#4d4d4d;stroke-width:0">Th</tspan></text>
    <rect
       style="color:#000000;clip-rule:nonzero;display:inline;overflow:visible;visibility:visible;opacity:1;isolation:auto;mix-blend-mode:normal;color-interpolation:sRGB;color-interpolation-filters:linearRGB;solid-color:#000000;solid-opacity:1;fill:#000000;fill-opacity:1;fill-rule:nonzero;stroke:none;stroke-width:0;stroke-linecap:butt;stroke-linejoin:miter;stroke-miterlimit:4;stroke-dasharray:none;stroke-dashoffset:0;stroke-opacity:1;color-rendering:auto;image-rendering:auto;shape-rendering:auto;text-rendering:auto;enable-background:accumulate"
       id="rect4745"
       width="744.09448"
       height="263.73523"
       x="0"
       y="788.62701" />
    <path
       inkscape:connector-curvature="0"
       id="path1368"
       style="fill:#ffffff"
       d="m 213.28352,1002.297 c -2.54432,-0.1932 -7.4384,-0.8527 -9.07475,-1.22 -1.99056,-0.4476 -3.52214,-1.0553 -3.68678,-1.46037 -0.11972,-0.29211 0.6336,-1.49799 3.10807,-4.97449 1.33203,-1.87484 1.79101,-2.70861 2.29489,-4.1925 1.56151,-4.59764 2.62913,-9.50142 3.93122,-18.0607 0.90298,-5.93548 1.58646,-9.81703 2.24999,-12.77536 0.46396,-2.05385 0.50387,-2.58616 0.41406,-5.14877 -0.0649,-1.856 -0.28935,-3.86746 -0.63856,-5.71875 -1.32704,-7.07072 -1.48669,-9.34598 -1.0377,-14.87631 0.1796,-2.19987 0.37418,-4.21605 0.42905,-4.47984 0.0549,-0.25909 0.32428,-2.10567 0.59866,-4.09828 0.2694,-1.99261 0.55876,-3.95696 0.63358,-4.3668 l 0.13471,-0.74428 -0.87305,0.1319 c -0.47893,0.0706 -1.95065,0.0282 -3.2727,-0.10363 -1.9257,-0.18373 -2.70896,-0.18373 -3.95119,0.0142 -3.50716,0.55115 -8.32642,1.93609 -16.59795,4.78133 -6.28099,2.1622 -11.9184,3.91457 -15.14621,4.71538 -3.75162,0.92799 -6.89959,1.04106 -12.02815,0.43338 -4.10085,-0.4852 -6.0465,-0.4428 -7.77266,0.17429 -1.39189,0.49462 -2.14022,1.21065 -3.30262,3.16557 -2.36473,3.97581 -2.38968,3.99465 -5.7771,4.66828 -3.17792,0.63123 -3.61194,0.91858 -4.71948,3.14202 -0.92294,1.85601 -1.0726,2.25641 -1.52658,4.10301 -0.71342,2.93944 -0.87805,5.26651 -0.7633,11.0418 0.18957,9.81236 1.59644,16.43083 5.44784,25.66371 2.00052,4.79075 1.8758,4.61648 5.70725,7.97048 1.60143,1.39908 3.52713,4.04636 3.67181,5.04038 0.19956,1.40381 -1.4817,3.43881 -3.57203,4.32445 -2.46949,1.0457 -4.98885,1.0316 -13.64953,-0.071 -2.44953,-0.31095 -5.94673,-0.70663 -7.77265,-0.87153 -1.82593,-0.16954 -3.62193,-0.34854 -3.99609,-0.40041 l -0.67849,-0.0942 0.11974,-0.98929 c 0.35421,-2.93466 0.57371,-7.56998 0.46397,-9.75578 -0.14967,-3.05242 -0.64856,-5.35124 -2.05043,-9.44018 -1.58646,-4.63997 -2.24998,-6.89638 -2.7339,-9.34592 -0.23447,-1.20596 -0.64357,-2.87823 -0.90798,-3.71673 -1.28712,-4.1454 -1.84089,-5.72347 -2.01051,-5.72347 -0.31928,0 -1.86583,2.94417 -2.85862,5.43608 -1.41684,3.55657 -2.38967,5.90254 -2.84864,6.86345 -3.47724,7.31571 -5.49773,13.06273 -5.82201,16.591 -0.11474,1.23891 -0.0598,1.65343 0.39412,3.01483 0.71341,2.13393 0.69345,2.74156 -0.10975,3.46703 -1.01275,0.91385 -2.45453,1.21534 -5.108601,1.0741 -5.667362,-0.31104 -7.822548,-0.48531 -9.598587,-0.77734 -2.419598,-0.40041 -8.525973,-1.7994 -8.750471,-2.00206 -0.174613,-0.16008 0.70842,-1.93136 2.230023,-4.46561 0.982807,-1.63932 6.236087,-11.49884 7.428418,-13.94363 2.554305,-5.24296 5.273237,-11.66358 6.899607,-16.29891 1.89078,-5.39842 4.110831,-13.47251 4.709491,-17.16569 0.12971,-0.78669 0.3143,-1.77592 0.40909,-2.19518 0.15465,-0.65948 0.70842,-5.00272 1.42183,-11.15485 0.11973,-0.99396 0.38913,-2.86409 0.60365,-4.15011 0.67849,-4.02763 0.44901,-6.10503 -0.98281,-9.02564 -0.34423,-0.69247 -0.72338,-1.8513 -0.84312,-2.57203 -0.45897,-2.6945 -1.07759,-4.84257 -1.39189,-4.84257 -0.0699,0 -0.3542,-0.34388 -0.6286,-0.76313 -0.453981,-0.69717 -0.808201,-0.97039 -0.808201,-0.62652 0,0.0706 -0.2245,1.68172 -0.49888,3.57541 -0.47893,3.28333 -1.20731,9.10572 -2.12526,16.97725 -0.63358,5.41256 -1.796,14.35812 -2.00553,15.44158 -0.0998,0.5276 -0.28934,1.64404 -0.41906,2.48253 -0.87804,5.64338 -1.731132,8.82309 -3.616929,13.50078 -1.606416,3.9758 -2.145212,5.45499 -2.534345,6.9671 l -0.274386,1.07875 -0.01503,-2.19518 c -0.03489,-5.63869 0.868069,-11.08422 2.873592,-17.36355 1.945656,-6.08619 2.948418,-12.67642 3.861378,-25.44233 0.61364,-8.6064 0.8531,-13.5055 1.11751,-22.6913 0.27938,-9.66159 0.72837,-13.25582 2.54433,-20.20878 0.98279,-3.75912 1.40186,-5.11107 2.659051,-8.58284 6.34086,-17.47188 16.86238,-29.06955 31.14551,-34.32194 6.70004,-2.46368 13.64454,-3.49531 22.11564,-3.28334 6.89461,0.1743 11.12517,0.73958 21.70656,2.90649 7.5781,1.55452 9.9478,1.74765 17.5658,1.44617 14.12847,-0.56528 23.70211,-2.51079 32.18318,-6.5337 3.92624,-1.86543 4.86415,-2.19988 8.51101,-3.01483 4.2156,-0.94213 10.79591,-1.49799 13.82914,-1.16824 4.18566,0.45694 14.06362,3.95696 18.56857,6.5808 1.44676,0.84321 3.2228,1.49328 4.65461,1.71469 0.38912,0.0613 2.83866,0.24024 5.43786,0.40041 5.38299,0.33446 6.20116,0.48048 9.9528,1.78535 7.58805,2.63797 11.33968,4.90379 16.42334,9.9395 3.31261,3.28805 7.46334,8.76656 10.55644,13.95772 1.3021,2.18104 4.27546,7.64071 4.27546,7.84798 0,0.0471 0.4041,0.8856 0.89301,1.86542 1.67127,3.34929 3.55208,7.73963 6.276,14.6549 0.96783,2.46367 1.96561,4.99801 2.21505,5.62454 0.25444,0.63122 0.85309,2.1669 1.33701,3.41994 1.04767,2.71806 1.40686,3.25507 2.68901,4.05118 1.60641,0.99395 4.13576,1.54039 9.51376,2.05385 4.28544,0.41453 5.75217,0.67363 5.75217,1.02692 0,0.60297 -1.02771,1.91253 -1.86085,2.37418 -1.24722,0.68776 -2.48445,1.03634 -5.15849,1.46974 -3.90628,0.63593 -4.72944,0.79138 -6.15626,1.18708 -0.74833,0.20727 -1.36195,0.43338 -1.36195,0.49933 0,0.0706 0.62859,3.17028 1.39688,6.89642 1.92569,9.31771 3.0482,15.30967 4.76935,25.45175 2.4196,14.28748 4.0759,32.47064 4.64464,51.00711 0.12971,4.21607 0.45398,6.91994 0.99278,8.37089 0.16962,0.45693 0.30931,0.84788 0.30931,0.87145 0,0.0236 -0.38414,0.0473 -0.85808,0.057 -0.46896,0.01 -1.8858,0.36273 -3.14299,0.79136 -2.18014,0.73958 -3.24776,0.91867 -3.95618,0.66423 -0.41407,-0.1507 -0.41407,-1.08812 0.006,-2.93466 0.55877,-2.48256 0.23947,-7.09904 -1.13745,-16.30371 -1.05266,-7.02824 -3.59698,-18.15959 -5.78709,-25.33394 -0.38914,-1.27188 -0.77826,-2.57202 -0.86807,-2.88763 -0.56374,-1.95965 -4.76935,-16.65223 -5.37301,-18.78146 -4.66957,-16.37428 -8.25158,-24.88176 -13.21551,-31.36365 -2.59919,-3.40109 -4.33033,-4.44215 -9.68837,-5.81766 -2.67903,-0.68777 -4.05595,-1.1918 -8.07698,-2.9536 -4.4351,-1.95021 -6.3658,-2.61441 -7.91733,-2.72276 -1.347,-0.0942 -1.36196,-0.0895 -1.58645,0.45692 -0.17462,0.41926 -0.15466,1.0552 0.0948,2.74162 0.38913,2.63327 0.41408,4.20192 0.0699,4.63059 -0.39911,0.49933 -6.94949,1.67229 -10.05257,1.79947 -2.11528,0.0848 -2.96339,0.0282 -5.14851,-0.34858 -3.58699,-0.6171 -9.70334,-0.66421 -11.35466,-0.0848 -1.47172,0.51817 -2.34975,1.25775 -2.98833,2.52491 -0.74833,1.498 -1.04767,3.31632 -1.31207,7.97046 -0.3143,5.55388 -0.0898,6.76924 2.75386,15.05059 0.9379,2.73219 2.07037,6.38767 2.52436,8.11648 1.791,6.90584 2.70896,8.98327 9.60856,21.73975 3.2278,5.97314 4.47501,8.62997 5.73221,12.20065 1.37693,3.92869 1.82093,6.16627 1.94067,9.82176 0.0598,1.79949 0.21452,3.38695 0.37915,3.86744 0.39911,1.18705 1.29711,2.1575 3.50219,3.79209 2.54432,1.89368 4.5249,3.73085 7.74271,7.17904 l 2.63912,2.82645 -0.9878,0.95626 c -1.2971,1.2624 -3.96116,3.354 -5.22833,4.10769 -4.04098,2.4071 -7.4384,2.9347 -14.39787,2.2328 -1.63136,-0.1648 -4.3054,-0.358 -5.93675,-0.4334 -1.63635,-0.075 -3.01827,-0.1836 -3.07814,-0.2402 -0.0599,-0.056 -0.19956,-1.52153 -0.31429,-3.25504 -0.45399,-7.15082 -1.59145,-12.22423 -4.05097,-18.07954 -1.36195,-3.25035 -2.16018,-4.7296 -3.99608,-7.39107 -1.73113,-2.51077 -3.11804,-4.79076 -4.78432,-7.86211 -1.52659,-2.81227 -3.63189,-6.02023 -5.57754,-8.48391 -1.32207,-1.68171 -2.90852,-3.30218 -3.07315,-3.13731 -0.0449,0.0471 -0.6735,1.5875 -1.40187,3.41995 -1.29711,3.28333 -1.8409,4.78604 -4.80429,13.35004 -1.23225,3.56131 -1.85586,5.0027 -3.6768,8.48392 -3.26769,6.23698 -4.1657,8.66766 -3.78155,10.25985 0.1796,0.74904 1.04766,2.08679 1.61639,2.48256 0.33925,0.23551 4.2555,4.75299 5.01381,5.77995 0.39911,0.53701 1.6563,3.59891 1.6563,4.02291 0,0.1696 -1.06262,0.3533 -5.35305,0.9374 -1.95563,0.2684 -10.98049,0.4899 -13.12571,0.325 z" />
    <path
       d="m 530.69316,1002.297 c -2.54432,-0.1932 -7.4384,-0.8527 -9.07475,-1.22 -1.99056,-0.4476 -3.52214,-1.0553 -3.68678,-1.46037 -0.11972,-0.29211 0.6336,-1.49799 3.10807,-4.97449 1.33203,-1.87484 1.79101,-2.70861 2.29489,-4.1925 1.56151,-4.59764 2.62913,-9.50142 3.93122,-18.0607 0.90298,-5.93548 1.58646,-9.81699 2.24999,-12.77532 0.46396,-2.05385 0.50387,-2.58615 0.41406,-5.14876 -0.0649,-1.85601 -0.28935,-3.86746 -0.63857,-5.71875 -1.32703,-7.07072 -1.48668,-9.34599 -1.03769,-14.87631 0.1796,-2.19988 0.37418,-4.21605 0.42905,-4.47984 0.0549,-0.2591 0.32427,-2.10567 0.59866,-4.09829 0.2694,-1.99261 0.55876,-3.95696 0.63358,-4.36679 l 0.13471,-0.74429 -0.87305,0.1319 c -0.47893,0.0706 -1.95065,0.0282 -3.2727,-0.10363 -1.9257,-0.18373 -2.70896,-0.18373 -3.95119,0.0142 -3.50716,0.55115 -8.32642,1.93609 -16.59795,4.78133 -6.28099,2.1622 -11.9184,3.91457 -15.14621,4.71539 -3.75163,0.92799 -6.89959,1.04105 -12.02815,0.43338 -4.10085,-0.4852 -6.04651,-0.4428 -7.77266,0.17429 -1.39189,0.49462 -2.14022,1.21064 -3.30262,3.16557 -2.36473,3.9758 -2.38968,3.99464 -5.7771,4.66827 -3.17792,0.63123 -3.61194,0.91858 -4.71948,3.14202 -0.92294,1.85601 -1.0726,2.25642 -1.52659,4.10301 -0.71341,2.93945 -0.87804,5.26652 -0.76329,11.0418 0.18957,9.81233 1.59644,16.43079 5.44784,25.66367 2.00052,4.79075 1.8758,4.61648 5.70725,7.97048 1.60143,1.39908 3.52713,4.04636 3.67181,5.04038 0.19955,1.40381 -1.4817,3.43881 -3.57203,4.32445 -2.46949,1.0457 -4.98885,1.0316 -13.64953,-0.071 -2.44953,-0.31095 -5.94673,-0.70663 -7.77266,-0.87153 -1.82593,-0.16954 -3.62192,-0.34854 -3.99608,-0.40041 l -0.67849,-0.0942 0.11974,-0.98929 c 0.35421,-2.93466 0.57371,-7.56998 0.46396,-9.75578 -0.14966,-3.05242 -0.64855,-5.35124 -2.05043,-9.44018 -1.58645,-4.63997 -2.24998,-6.89638 -2.73389,-9.34591 -0.23448,-1.20597 -0.64357,-2.87823 -0.90798,-3.71674 -1.28712,-4.14536 -1.84089,-5.72342 -2.01051,-5.72342 -0.31929,0 -1.86584,2.94416 -2.85862,5.43604 -1.41684,3.55657 -2.38967,5.90253 -2.84864,6.86344 -3.47724,7.31571 -5.49774,13.06273 -5.82201,16.591 -0.11475,1.23891 -0.0599,1.65343 0.39412,3.01483 0.71341,2.13393 0.69345,2.74156 -0.10976,3.46703 -1.01273,0.91385 -2.45451,1.21534 -5.1086,1.0741 -5.66735,-0.31104 -7.82254,-0.48531 -9.59858,-0.77734 -2.4196,-0.40041 -8.52597,-1.7994 -8.75047,-2.00206 -0.17461,-0.16008 0.70842,-1.93136 2.23002,-4.46561 0.98281,-1.63932 6.23609,-11.49884 7.42842,-13.94363 2.55432,-5.24295 5.27324,-11.66357 6.89962,-16.29886 1.89077,-5.39843 4.11082,-13.47251 4.70948,-17.1657 0.12971,-0.78668 0.3143,-1.77591 0.40909,-2.19517 0.15466,-0.65949 0.70842,-5.00273 1.42182,-11.15486 0.11974,-0.99396 0.38914,-2.86409 0.60366,-4.1501 0.67849,-4.02763 0.44899,-6.10504 -0.98281,-9.02565 -0.34422,-0.69247 -0.72338,-1.8513 -0.84311,-2.57203 -0.45898,-2.69449 -1.0776,-4.84256 -1.3919,-4.84256 -0.0699,0 -0.35421,-0.34388 -0.6286,-0.76313 -0.45399,-0.69718 -0.8082,-0.97039 -0.8082,-0.62652 0,0.0706 -0.22449,1.68171 -0.49888,3.5754 -0.47893,3.28334 -1.20731,9.10573 -2.12526,16.97726 -0.63358,5.41256 -1.79599,14.35812 -2.00552,15.44157 -0.0998,0.5276 -0.28936,1.64404 -0.41907,2.48253 -0.87804,5.64338 -1.73113,8.82309 -3.61693,13.50078 -1.60642,3.9758 -2.14521,5.45496 -2.53434,6.96707 l -0.27439,1.07874 -0.015,-2.19517 c -0.0349,-5.63865 0.86807,-11.08419 2.87359,-17.36352 1.94566,-6.08618 2.94842,-12.67642 3.86138,-25.44233 0.61363,-8.60639 0.8531,-13.5055 1.1175,-22.6913 0.27938,-9.66159 0.72837,-13.25582 2.54433,-20.20877 0.98281,-3.75912 1.40187,-5.11108 2.65906,-8.58285 6.34086,-17.47187 16.86238,-29.06954 31.1455,-34.32194 6.70005,-2.46368 13.64455,-3.49531 22.11565,-3.28333 6.89461,0.17429 11.12517,0.73958 21.70656,2.90648 7.57809,1.55452 9.9478,1.74766 17.5658,1.44617 14.12847,-0.56528 23.70211,-2.51078 32.18318,-6.53369 3.92624,-1.86543 4.86415,-2.19989 8.51101,-3.01484 4.2156,-0.94213 10.79591,-1.49798 13.82914,-1.16824 4.18566,0.45694 14.06362,3.95696 18.56857,6.5808 1.44676,0.84322 3.2228,1.49329 4.65461,1.7147 0.38912,0.0612 2.83866,0.24024 5.43786,0.4004 5.38299,0.33446 6.20116,0.48049 9.9528,1.78535 7.58805,2.63797 11.33968,4.9038 16.42334,9.9395 3.31261,3.28806 7.46334,8.76656 10.55644,13.95772 1.3021,2.18104 4.27546,7.64071 4.27546,7.84798 0,0.0471 0.4041,0.8856 0.89301,1.86542 1.67127,3.34929 3.55208,7.73963 6.276,14.6549 0.96783,2.46368 1.96561,4.99802 2.21505,5.62454 0.25444,0.63123 0.85309,2.1669 1.33701,3.41995 1.04767,2.71805 1.40686,3.25507 2.689,4.05117 1.60642,0.99395 4.13577,1.5404 9.51377,2.05385 4.28544,0.41454 5.75217,0.67363 5.75217,1.02692 0,0.60297 -1.02771,1.91254 -1.86085,2.37419 -1.24722,0.68775 -2.48445,1.03634 -5.15849,1.46973 -3.90628,0.63594 -4.72944,0.79139 -6.15626,1.18709 -0.74833,0.20726 -1.36196,0.43337 -1.36196,0.49932 0,0.0706 0.6286,3.17028 1.39689,6.89642 1.92569,9.31771 3.04819,15.30968 4.76935,25.45176 2.4196,14.28747 4.0759,32.47059 4.64464,51.00706 0.12971,4.21607 0.45398,6.91994 0.99278,8.37089 0.16962,0.45693 0.30931,0.84788 0.30931,0.87145 0,0.0236 -0.38414,0.0473 -0.85808,0.057 -0.46896,0.01 -1.8858,0.36273 -3.14299,0.79136 -2.18014,0.73958 -3.24776,0.91867 -3.95618,0.66423 -0.41407,-0.1507 -0.41407,-1.08812 0.006,-2.93466 0.55877,-2.48256 0.23947,-7.09904 -1.13745,-16.30371 -1.05266,-7.02824 -3.59698,-18.15954 -5.78709,-25.3339 -0.38914,-1.27188 -0.77826,-2.57202 -0.86807,-2.88763 -0.56374,-1.95964 -4.76935,-16.65223 -5.37301,-18.78146 -4.66957,-16.37428 -8.25158,-24.88175 -13.21551,-31.36364 -2.59919,-3.4011 -4.33033,-4.44215 -9.68837,-5.81767 -2.67903,-0.68776 -4.05595,-1.1918 -8.07698,-2.9536 -4.4351,-1.95021 -6.3658,-2.61441 -7.91733,-2.72276 -1.347,-0.0942 -1.36196,-0.0895 -1.58646,0.45693 -0.17461,0.41926 -0.15465,1.05519 0.0948,2.74161 0.38912,2.63327 0.41408,4.20192 0.0699,4.63059 -0.39911,0.49934 -6.9495,1.67229 -10.05257,1.79948 -2.11528,0.0848 -2.96339,0.0282 -5.14851,-0.34858 -3.58699,-0.61711 -9.70334,-0.66421 -11.35466,-0.0848 -1.47172,0.51817 -2.34975,1.25775 -2.98833,2.52492 -0.74833,1.49799 -1.04767,3.31631 -1.31207,7.97045 -0.3143,5.55388 -0.0898,6.76924 2.75385,15.05059 0.93791,2.73219 2.07038,6.38768 2.52437,8.11648 1.791,6.90585 2.70895,8.98327 9.60856,21.73976 3.2278,5.97313 4.47501,8.62993 5.73221,12.20061 1.37693,3.92868 1.82093,6.16626 1.94067,9.82175 0.0598,1.79949 0.21452,3.38695 0.37915,3.86744 0.39911,1.18705 1.29711,2.1575 3.50219,3.79209 2.54432,1.89368 4.5249,3.73085 7.74271,7.17904 l 2.63912,2.82645 -0.9878,0.95626 c -1.2971,1.2624 -3.96116,3.354 -5.22833,4.10769 -4.04098,2.40709 -7.4384,2.93469 -14.39787,2.23279 -1.63136,-0.1648 -4.3054,-0.3579 -5.93675,-0.4334 -1.63635,-0.075 -3.01827,-0.1836 -3.07814,-0.2402 -0.0598,-0.056 -0.19956,-1.52152 -0.31429,-3.25503 -0.45399,-7.15082 -1.59145,-12.22423 -4.05097,-18.07954 -1.36195,-3.25035 -2.16018,-4.7296 -3.99608,-7.39107 -1.73113,-2.51077 -3.11804,-4.79075 -4.78432,-7.8621 -1.52659,-2.81223 -3.63189,-6.02019 -5.57755,-8.48388 -1.32206,-1.6817 -2.90851,-3.30217 -3.07315,-3.1373 -0.0449,0.0471 -0.67349,1.5875 -1.40186,3.41995 -1.29711,3.28333 -1.8409,4.78604 -4.80429,13.34999 -1.23225,3.56131 -1.85586,5.0027 -3.6768,8.48392 -3.26769,6.23698 -4.1657,8.66766 -3.78155,10.25985 0.1796,0.74904 1.04766,2.08679 1.61639,2.48256 0.33925,0.23551 4.2555,4.75299 5.01381,5.77995 0.39911,0.53701 1.6563,3.5989 1.6563,4.0229 0,0.1696 -1.06262,0.3533 -5.35305,0.9374 -1.95563,0.2684 -10.98049,0.4899 -13.12571,0.325 z"
       style="fill:#ffffff"
       id="path4739"
       inkscape:connector-curvature="0" />
    <flowRoot
       xml:space="preserve"
       id="flowRoot4747"
       style="color:#000000;font-style:normal;font-variant:normal;font-weight:bold;font-stretch:normal;font-size:70px;line-height:125%;font-family:Memorandum;-inkscape-font-specification:'Memorandum Bold';text-align:start;writing-mode:lr-tb;text-anchor:start;clip-rule:nonzero;display:inline;overflow:visible;visibility:visible;opacity:1;isolation:auto;mix-blend-mode:normal;color-interpolation:sRGB;color-interpolation-filters:linearRGB;solid-color:#000000;solid-opacity:1;fill:#000000;fill-opacity:1;fill-rule:nonzero;stroke:none;stroke-width:0;stroke-linecap:butt;stroke-linejoin:miter;stroke-miterlimit:4;stroke-dasharray:none;stroke-dashoffset:0;stroke-opacity:1;color-rendering:auto;image-rendering:auto;shape-rendering:auto;text-rendering:auto;enable-background:accumulate"><flowRegion
         id="flowRegion4749"><rect
           id="rect4751"
           width="744.09448"
           height="71.579552"
           x="0"
           y="716.03094"
           style="fill:#000000" /></flowRegion><flowPara
         id="flowPara4753">Savesasdfasdf</flowPara></flowRoot>    <path
       d="m 563.01502,407.04768 -25.86294,0.56991 c -8.24634,0.18328 -13.62372,15.9642 1.34092,23.75322 -4.39651,13.92355 -7.49862,26.60805 -11.48155,40.29822 -5.66151,-2.49975 -11.91795,-3.88902 -18.50456,-3.88902 -25.33812,0 -45.87652,20.53997 -45.87652,45.88019 0,25.34022 20.5384,45.88019 45.87652,45.88019 25.33812,0 45.87653,-20.53997 45.87653,-45.88019 0,-14.46929 -6.70172,-27.36361 -17.164,-35.77215 l 1.65942,-5.69918 52.90004,36.10754 c -0.62004,1.86742 -0.9554,3.85847 -0.9554,5.93413 0,10.40262 8.42163,18.84151 18.82322,18.84151 1.81508,0 3.56879,-0.25805 5.22961,-0.73756 l 3.11765,6.52068 -4.60942,0 0,6.31974 18.40408,0 0,-5.74993 -9.20229,0 -4.15687,-8.53255 c 4.66656,-2.46711 8.17517,-6.83044 9.48695,-12.06916 l 4.15687,-0.0167 c 2.55924,22.9155 21.97732,40.73406 45.5746,40.73406 25.33814,0 45.87653,-20.53996 45.87653,-45.88018 0,-25.34021 -20.53839,-45.88019 -45.87653,-45.88019 -6.30824,0 -12.31351,1.26724 -17.78403,3.57052 l -15.25311,-27.91039 5.74941,-13.41024 c 10.80605,0 9.20597,-6.59812 11.4983,-11.4826 l -43.68046,0 c -1.83549,1.26289 -5.15826,2.63662 -2.11198,5.3643 7.08788,3.71404 14.18255,4.89454 21.27043,6.1183 l -4.97816,11.11371 -84.29472,0 3.06737,-11.11371 c -0.42601,-4.54898 -4.1059,-6.76138 -8.04541,-8.80046 -1.35112,-1.63886 0.50181,-1.99983 1.54205,-2.6821 l 18.38735,0 0,-11.49935 z m -17.81753,45.02521 81.98199,0 -17.23098,43.33251 c -0.10054,-10e-4 -0.20076,-0.0167 -0.3017,-0.0167 -2.76362,0 -5.3821,0.60591 -7.74402,1.67632 l -3.63724,-7.44264 7.45886,0 0,-6.52068 -18.77298,0 0,5.93413 7.08998,-0.18439 4.77701,9.97409 c -0.44918,0.31705 -0.88816,0.65169 -1.30739,1.00578 l -55.38545,-37.412 3.07145,-10.34455 z m 95.00554,3.4364 11.14616,20.56823 c -10.42251,7.31183 -17.66788,18.84152 -19.24233,32.11781 l -4.62616,0 c -1.14052,-3.36923 -3.192,-6.32237 -5.88336,-8.53255 l 18.60553,-44.154 z m -131.70069,25.11052 c 5.2853,0 10.26921,1.24538 14.70004,3.4532 -1.69662,5.23663 -3.58386,10.67995 -5.7829,16.46128 l -8.24686,8.04646 c -6.91677,4.93441 -6.2151,12.16858 4.7938,9.95735 6.81004,-4.15854 13.32444,-9.24051 17.61661,-21.4567 l 1.5756,-5.39779 c 5.20936,5.84045 8.38081,13.53529 8.38081,21.97628 0,18.24502 -14.79371,33.03977 -33.03715,33.03977 -18.24345,0 -33.02041,-14.79475 -33.02041,-33.03977 0,-18.24502 14.77696,-33.03977 33.02041,-33.03977 z m 169.13885,0 c 18.24345,0 33.03714,14.79474 33.03714,33.03976 0,18.24502 -14.79369,33.03977 -33.03714,33.03977 -16.52198,0 -30.20011,-12.13562 -32.63477,-27.97738 l 31.39416,-0.18439 c 7.52321,-0.43938 6.82153,-4.57756 4.22389,-9.57171 l -14.51533,-26.28415 c 3.5916,-1.34015 7.47245,-2.06186 11.53178,-2.06186 z m -20.1308,6.85608 11.23041,20.71892 -23.65067,0 c 1.39832,-8.39809 5.95872,-15.73398 12.42026,-20.71892 z m -49.71452,13.30977 -1.82701,4.60984 -1.75999,-3.60406 c 1.12315,-0.49299 2.33001,-0.83421 3.58695,-1.00578 z m 11.6155,4.03987 c 0.95368,0.99082 1.76109,2.12541 2.38014,3.36938 l -3.80487,0 1.42473,-3.36938 z m -23.03009,6.62114 5.90012,4.02312 c 2.12677,1.53991 4.23807,3.01594 6.13451,3.41967 l 4.12333,8.58277 c -0.93593,0.20422 -1.90283,0.3185 -2.89971,0.3185 -7.48921,0 -13.54315,-6.07121 -13.54315,-13.56145 0,-0.95466 0.0975,-1.88368 0.28495,-2.78267 z m 26.01416,7.40914 c -1.13779,3.13423 -3.40459,5.72064 -6.30248,7.29194 l -3.53666,-7.24171 9.8391,-0.0503 z"
       style="fill:#000000"
       id="path4789"
       inkscape:connector-curvature="0" />
    <flowRoot
       xml:space="preserve"
       id="flowRoot4791"
       style="color:#000000;font-style:normal;font-variant:normal;font-weight:bold;font-stretch:normal;font-size:40px;line-height:125%;font-family:Memorandum;-inkscape-font-specification:'Memorandum Bold';text-align:start;writing-mode:lr-tb;text-anchor:start;clip-rule:nonzero;display:inline;overflow:visible;visibility:visible;opacity:1;isolation:auto;mix-blend-mode:normal;color-interpolation:sRGB;color-interpolation-filters:linearRGB;solid-color:#000000;solid-opacity:1;fill:#000000;fill-opacity:1;fill-rule:nonzero;stroke:none;stroke-width:0;stroke-linecap:butt;stroke-linejoin:miter;stroke-miterlimit:4;stroke-dasharray:none;stroke-dashoffset:0;stroke-opacity:1;color-rendering:auto;image-rendering:auto;shape-rendering:auto;text-rendering:auto;enable-background:accumulate"
       transform="matrix(1.0148616,0,0,1.9985283,17.128035,-674.05573)"><flowRegion
         id="flowRegion4793"><rect
           id="rect4795"
           width="744.09448"
           height="193.64622"
           x="0"
           y="593.23328" /></flowRegion><flowPara
         id="flowPara4797"
         style="font-style:normal;font-variant:normal;font-weight:normal;font-stretch:normal;font-family:FujiyamaExtraBold;-inkscape-font-specification:FujiyamaExtraBold" /><flowPara
         style="font-style:normal;font-variant:normal;font-weight:bold;font-stretch:normal;font-family:'Cooper Hewitt';-inkscape-font-specification:'Cooper Hewitt Bold'"
         id="flowPara4811">REDUCES YEARLY CARBON EMISSIONS</flowPara><flowPara
         style="font-style:normal;font-variant:normal;font-weight:normal;font-stretch:normal;font-family:FujiyamaExtraBold;-inkscape-font-specification:FujiyamaExtraBold"
         id="flowPara4799" /></flowRoot>    <flowRoot
       xml:space="preserve"
       id="flowRoot4803"
       style="color:#000000;font-style:normal;font-variant:normal;font-weight:normal;font-stretch:normal;font-size:40px;line-height:125%;font-family:FujiyamaExtraBold;-inkscape-font-specification:FujiyamaExtraBold;text-align:start;writing-mode:lr-tb;text-anchor:start;clip-rule:nonzero;display:inline;overflow:visible;visibility:visible;opacity:1;isolation:auto;mix-blend-mode:normal;color-interpolation:sRGB;color-interpolation-filters:linearRGB;solid-color:#000000;solid-opacity:1;fill:#000000;fill-opacity:1;fill-rule:nonzero;stroke:none;stroke-width:0;stroke-linecap:butt;stroke-linejoin:miter;stroke-miterlimit:4;stroke-dasharray:none;stroke-dashoffset:0;stroke-opacity:1;color-rendering:auto;image-rendering:auto;shape-rendering:auto;text-rendering:auto;enable-background:accumulate"
       transform="matrix(5.2083347,0,0,2.7396553,78.404284,-1263.3906)"><flowRegion
         id="flowRegion4805"><rect
           id="rect4807"
           width="201.92883"
           height="75.73777"
           x="0"
           y="702.54968" /></flowRegion><flowPara
         id="flowPara4809" /></flowRoot>    <text
       xml:space="preserve"
       style="color:#000000;font-style:normal;font-variant:normal;font-weight:normal;font-stretch:normal;font-size:68.89142609px;line-height:125%;font-family:FujiyamaExtraBold;-inkscape-font-specification:FujiyamaExtraBold;text-align:start;writing-mode:lr-tb;text-anchor:start;clip-rule:nonzero;display:inline;overflow:visible;visibility:visible;opacity:1;isolation:auto;mix-blend-mode:normal;color-interpolation:sRGB;color-interpolation-filters:linearRGB;solid-color:#000000;solid-opacity:1;fill:#000000;fill-opacity:1;fill-rule:nonzero;stroke:none;stroke-width:0;stroke-linecap:butt;stroke-linejoin:miter;stroke-miterlimit:4;stroke-dasharray:none;stroke-dashoffset:0;stroke-opacity:1;color-rendering:auto;image-rendering:auto;shape-rendering:auto;text-rendering:auto;enable-background:accumulate"
       x="101.45153"
       y="1030.405"
       id="text4813"
       sodipodi:linespacing="125%"
       transform="scale(1.3422498,0.74501781)"><tspan
         sodipodi:role="line"
         id="tspan4815"
         x="101.45153"
         y="1030.405"
         style="font-style:normal;font-variant:normal;font-weight:bold;font-stretch:normal;font-size:137.78285217px;font-family:'Cooper Hewitt';-inkscape-font-specification:'Cooper Hewitt Bold';letter-spacing:-8.06744766px">2 TONS</tspan></text>
    <rect
       y="579.85803"
       x="5.7671014e-06"
       height="11.335176"
       width="744.09448"
       id="rect4842"
       style="color:#000000;clip-rule:nonzero;display:inline;overflow:visible;visibility:visible;opacity:1;isolation:auto;mix-blend-mode:normal;color-interpolation:sRGB;color-interpolation-filters:linearRGB;solid-color:#000000;solid-opacity:1;fill:#000000;fill-opacity:1;fill-rule:nonzero;stroke:none;stroke-width:0;stroke-linecap:butt;stroke-linejoin:miter;stroke-miterlimit:4;stroke-dasharray:none;stroke-dashoffset:0;stroke-opacity:1;color-rendering:auto;image-rendering:auto;shape-rendering:auto;text-rendering:auto;enable-background:accumulate" />
    <flowRoot
       transform="matrix(1.0842498,0,0,1.9985283,54.009002,-578.78082)"
       style="color:#000000;font-style:normal;font-variant:normal;font-weight:bold;font-stretch:normal;font-size:40px;line-height:125%;font-family:Memorandum;-inkscape-font-specification:'Memorandum Bold';text-align:start;writing-mode:lr-tb;text-anchor:start;clip-rule:nonzero;display:inline;overflow:visible;visibility:visible;opacity:1;isolation:auto;mix-blend-mode:normal;color-interpolation:sRGB;color-interpolation-filters:linearRGB;solid-color:#000000;solid-opacity:1;fill:#000000;fill-opacity:1;fill-rule:nonzero;stroke:none;stroke-width:0;stroke-linecap:butt;stroke-linejoin:miter;stroke-miterlimit:4;stroke-dasharray:none;stroke-dashoffset:0;stroke-opacity:1;color-rendering:auto;image-rendering:auto;shape-rendering:auto;text-rendering:auto;enable-background:accumulate"
       id="flowRoot3385"
       xml:space="preserve"><flowRegion
         id="flowRegion3387"><rect
           y="593.23328"
           x="0"
           height="193.64622"
           width="744.09448"
           id="rect3389" /></flowRegion><flowPara
         style="font-style:normal;font-variant:normal;font-weight:normal;font-stretch:normal;font-family:FujiyamaExtraBold;-inkscape-font-specification:FujiyamaExtraBold"
         id="flowPara3391" /><flowPara
         id="flowPara3395"
         style="font-style:normal;font-variant:normal;font-weight:bold;font-stretch:normal;font-family:'Cooper Hewitt';-inkscape-font-specification:'Cooper Hewitt Bold'">BY</flowPara><flowPara
         id="flowPara3397"
         style="font-style:normal;font-variant:normal;font-weight:normal;font-stretch:normal;font-family:FujiyamaExtraBold;-inkscape-font-specification:FujiyamaExtraBold" /></flowRoot>    <text
       xml:space="preserve"
       style="color:#000000;font-style:normal;font-variant:normal;font-weight:500;font-stretch:normal;font-size:16.33122063px;line-height:125%;font-family:Oswald;-inkscape-font-specification:'Oswald Medium';text-align:end;writing-mode:lr-tb;text-anchor:end;clip-rule:nonzero;display:inline;overflow:visible;visibility:visible;opacity:1;isolation:auto;mix-blend-mode:normal;color-interpolation:sRGB;color-interpolation-filters:linearRGB;solid-color:#000000;solid-opacity:1;fill:#ffffff;fill-opacity:1;fill-rule:nonzero;stroke:none;stroke-width:1;stroke-linecap:butt;stroke-linejoin:miter;stroke-miterlimit:4;stroke-dasharray:none;stroke-dashoffset:0;stroke-opacity:1;color-rendering:auto;image-rendering:auto;shape-rendering:auto;text-rendering:auto;enable-background:accumulate"
       x="24.119856"
       y="968.42847"
       id="text3549"
       sodipodi:linespacing="125%"
       transform="scale(0.93321258,1.0715672)"><tspan
         sodipodi:role="line"
         id="tspan3551"
         x="24.119856"
         y="968.42847"
         style="font-style:italic;font-variant:normal;font-weight:bold;font-stretch:normal;font-size:16.33122063px;line-height:125%;font-family:'Cooper Hewitt';-inkscape-font-specification:'Cooper Hewitt, Bold Italic';text-align:start;writing-mode:lr-tb;text-anchor:start;fill:#ffffff">A MULTITUDE OF INDIVIDUAL CHOICES YIELDS EFFECTIVE GLOBAL CHANGE            http://greenismy.life</tspan></text>
  </g>
</svg>
